<?xml version="1.0" encoding="UTF-8"?>
<svg xmlns="http://www.w3.org/2000/svg" width="150" height="116" viewBox="0 0 150 116" fill="none">
  <path d="M53.707 0V115.559L75.3743 98.8075L97.0416 115.559V0H53.707Z" fill="#FDB813"></path>
  <path d="M29.9649 86.6307H25.0127L25.2987 85.7184V79.5507L25.0127 78.6384H29.7898L30.5071 80.8057L29.5038 80.463H27.5699L27.4546 80.5787V81.3197L27.5699 81.4353H28.8805L29.5849 83.5469L28.8208 83.2599H27.5699L27.4546 83.3756V84.5149L27.6254 84.6862H29.5337L30.7291 84.2879L29.9563 86.6265L29.9649 86.6307Z" fill="#0C4DA2"></path>
  <path d="M37.3041 86.6307L37.5858 85.7184V82.1806L37.6413 81.7223L37.4748 82.1806L35.6519 86.635H35.5964L33.7778 82.1806L33.607 81.7223L33.6625 82.1806V85.7184L33.9443 86.6307H31.498L31.7841 85.7184V79.5507L31.498 78.6384H34.3413L35.6519 81.8593L35.7074 82.1206L35.7629 81.8593L37.0735 78.6384H39.9723L39.6905 79.5507V85.7184L39.9723 86.6307H37.2998H37.3041Z" fill="#0C4DA2"></path>
  <path d="M45.6668 81.1483L45.4405 80.69L44.9837 80.463H44.0146L43.8993 80.5744V82.005L44.0146 82.1206H44.9837L45.4405 81.8893L45.6668 81.431V81.1483ZM46.29 83.9452H44.0146L43.8993 84.0609V85.6028L44.2451 86.6307H41.4531L41.7392 85.7184V79.5507L41.4531 78.6384H46.4053L47.8867 80.1204V82.3476L46.29 83.9452Z" fill="#0C4DA2"></path>
  <path d="M53.4064 86.6307H48.7402L49.022 85.7184V79.5507L48.7402 78.6384H51.5835L51.2419 79.6664V84.5192L51.4127 84.6905H53.0051L54.1748 84.2922L53.4021 86.6307H53.4064Z" fill="#0C4DA2"></path>
  <path d="M58.8119 81.0925L58.5856 80.6342L58.1288 80.4072H57.5568L57.1 80.6342L56.8737 81.0925V84.0607L57.1 84.519L57.5568 84.746H58.1288L58.5856 84.519L58.8119 84.0607V81.0925ZM59.6102 86.6306H56.0839L54.6025 85.1487V80.1245L56.0839 78.6426H59.6102L61.0873 80.1245V85.1487L59.6102 86.6306Z" fill="#0C4DA2"></path>
  <path d="M67.8576 79.5507L65.8682 83.5469V85.4315L66.2652 86.6307H63.3067L63.7037 85.4315V83.6625L61.6545 79.5507L61.0312 78.6384H63.819L63.9342 79.4394L64.7881 81.1526L64.8991 81.4953L65.0143 81.1526L65.8682 79.4394L65.9834 78.6384H68.4851L67.8618 79.5507H67.8576Z" fill="#0C4DA2"></path>
  <path d="M73.4932 86.6307H68.541L68.8228 85.7184V79.5507L68.541 78.6384H73.3182L74.0354 80.8057L73.0321 80.463H71.0982L70.983 80.5787V81.3197L71.0982 81.4353H72.4088L73.1132 83.5469L72.3491 83.2599H71.0982L70.983 83.3756V84.5149L71.1537 84.6862H73.062L74.2574 84.2879L73.4847 86.6265L73.4932 86.6307Z" fill="#0C4DA2"></path>
  <path d="M79.9776 86.6307H75.0254L75.3114 85.7184V79.5507L75.0254 78.6384H79.8025L80.5198 80.8057L79.5165 80.463H77.5826L77.4673 80.5787V81.3197L77.5826 81.4353H78.8932L79.5976 83.5469L78.8334 83.2599H77.5826L77.4673 83.3756V84.5149L77.6381 84.6862H79.5464L80.7417 84.2879L79.969 86.6265L79.9776 86.6307Z" fill="#0C4DA2"></path>
  <path d="M81.1172 83.6625H84.7588V81.9492H81.1172V83.6625Z" fill="#0C4DA2"></path>
  <path d="M90.3344 81.0925L90.1081 80.6342L89.6513 80.4072H89.0792L88.6224 80.6342L88.3962 81.0925V84.0607L88.6224 84.519L89.0792 84.746H89.6513L90.1081 84.519L90.3344 84.0607V81.0925ZM91.1327 86.6306H87.6064L86.125 85.1487V80.1245L87.6064 78.6426H91.1327L92.6098 80.1245V85.1487L91.1327 86.6306Z" fill="#0C4DA2"></path>
  <path d="M102.852 79.5507L100.802 86.6307H99.4363L98.2409 82.4633L98.1854 82.0649L98.1299 82.4633L96.9346 86.6307H95.5685L93.5193 79.5507L93.0625 78.6384H95.7947L95.6837 79.5507L96.3668 82.0649L96.4223 82.5232L96.4778 82.0649L97.4426 78.6384H99.1503L100.119 82.0649L100.175 82.5232L100.23 82.0649L100.913 79.5507L100.798 78.6384H103.304L102.847 79.5507H102.852Z" fill="#0C4DA2"></path>
  <path d="M110.25 79.5504V86.6304H108.713L106.207 82.4029L105.981 81.829L106.037 82.4029V85.7138L106.323 86.6261H103.817L104.098 85.7138V79.5461L103.757 78.6338H106.203L108.192 82.0046L108.419 82.5743L108.363 82.0046V79.5504L108.077 78.6381H110.523L110.242 79.5504H110.25Z" fill="#0C4DA2"></path>
  <path d="M116.961 86.6307H112.009L112.291 85.7184V79.5507L112.009 78.6384H116.786L117.503 80.8057L116.5 80.463H114.566L114.451 80.5787V81.3197L114.566 81.4353H115.877L116.581 83.5469L115.817 83.2599H114.566L114.451 83.3756V84.5149L114.621 84.6862H116.53L117.725 84.2879L116.952 86.6265L116.961 86.6307Z" fill="#0C4DA2"></path>
  <path d="M122.767 81.264L122.485 80.69L121.913 80.4074H121.174L121.059 80.523V84.5748L121.23 84.7419H121.913L122.485 84.4592L122.767 83.8895V81.2597V81.264ZM123.45 86.6307H118.502L118.784 85.7184V79.5507L118.502 78.6384H123.45L125.042 80.2403V85.0331L123.45 86.6307Z" fill="#0C4DA2"></path>
  <path d="M0 82.8661H21.1877V82.2322H0V82.8661Z" fill="#0C4DA2"></path>
  <path d="M128.557 82.8661H150V82.2322H128.557V82.8661Z" fill="#0C4DA2"></path>
  <path d="M15.4243 47.1612V43.3706C15.4243 42.7795 15.1298 42.4883 14.5449 42.4883H0.87944C0.2903 42.4883 0 42.7838 0 43.3706V65.2617C0 65.8527 0.29457 66.1483 0.87944 66.1483H5.20406C5.7932 66.1483 6.0835 65.8527 6.0835 65.2617V57.8476C6.0835 57.3893 6.30977 57.1537 6.76229 57.1451H12.9909C13.5801 57.1451 13.8704 56.8496 13.8704 56.2628V52.4723C13.8704 51.8812 13.5758 51.5899 12.9909 51.5899H6.78364C6.35246 51.5899 6.11339 51.2045 6.0835 50.7761V48.8787C6.11339 48.4418 6.34819 48.0435 6.78364 48.0435H14.5406C15.1298 48.0435 15.4201 47.748 15.4201 47.1612H15.4243Z" fill="#0C4DA2"></path>
  <path d="M36.1856 28.4785H31.2334L31.5194 27.5619V21.3942L31.2334 20.4819H36.0105L36.7278 22.6535L35.7245 22.3108H33.7906L33.6753 22.4265V23.1675L33.7906 23.2831H35.1012L35.8056 25.3947L35.0415 25.1077H33.7906L33.6753 25.2234V26.3627L33.8461 26.534H35.7587L36.9583 26.1357L36.1813 28.4743L36.1856 28.4785Z" fill="#0C4DA2"></path>
  <path d="M42.3238 28.4784H39.1903L38.3962 27.6775L38.0547 26.9922V26.5339L39.8776 25.6216V26.2469L40.2191 26.5895H41.0132L41.3547 26.4225L41.5255 26.0798V25.5659L41.2395 25.2832L39.4763 24.8849L38.4517 23.8569V21.9723L39.9288 20.4861H42.9983L43.7155 22.6576L42.7422 22.315H41.2352L40.8979 22.4863L40.7272 22.829V23.056L40.9534 23.2872L42.7166 23.6856L43.7967 24.7692V26.9964L42.3195 28.4784H42.3238Z" fill="#0C4DA2"></path>
  <path d="M50.3416 22.3708H49.4536L49.3384 22.4864V27.2793L49.7354 28.4785H46.7214L47.1184 27.2793V22.4864L47.0031 22.3708H46.1152L44.9326 22.7691L45.6968 20.4819H50.7642L51.5284 22.7691L50.3459 22.3708H50.3416Z" fill="#0C4DA2"></path>
  <path d="M53.0951 28.4786H51.618L51.0459 27.9046V26.5383L51.618 25.9644H53.0951L53.6671 26.5383V27.9046L53.0951 28.4786Z" fill="#0C4DA2"></path>
  <path d="M96.2 28.3672L96.597 27.3393V22.4308H95.6279L96.6525 20.3706H98.7017V27.3393L99.0987 28.3672H96.1957H96.2Z" fill="#0C4DA2"></path>
  <path d="M104.197 22.7133L103.971 22.255L103.514 22.028H102.942L102.485 22.255L102.259 22.7133V23.1117L102.485 23.57L102.942 23.797H103.514L103.971 23.57L104.197 23.1117V22.7133ZM104.769 28.3628H100.957L100.218 26.0799L101.9 26.6495H103.343L103.915 26.3669L104.197 25.7972V25.0519L103.514 25.3989H101.524L100.214 24.0839V21.8567L101.691 20.3748H104.88L106.357 21.8567V26.7652L104.765 28.3628H104.769Z" fill="#0C4DA2"></path>
  <path d="M111.8 22.7133L111.57 22.255L111.113 22.028H110.66L110.203 22.255L109.973 22.7133V25.9086L110.203 26.3669L110.66 26.5981H111.113L111.57 26.3669L111.8 25.9086V22.7133ZM112.483 28.3628H109.298L107.821 26.8808V21.8567L109.298 20.3748H112.483L113.96 21.8567V26.8808L112.483 28.3628Z" fill="#0C4DA2"></path>
  <path d="M118.459 27.2236L118.289 28.3629H115.39L118.801 22.4265L118.686 22.3109H116.239L114.929 22.7692L115.706 20.3706H120.508L121.192 21.7369L118.459 27.2193V27.2236Z" fill="#0C4DA2"></path>
  <path d="M86.7231 25.6903L86.5139 25.5361L75.0385 34.098L64.1181 25.9473C63.2514 25.3005 63.3069 24.0498 63.6527 23.1332L74.3469 31.1127C74.5091 31.2326 74.8208 31.3825 75.0385 31.3825C75.2562 31.3825 75.5679 31.2326 75.7301 31.1127L86.9195 22.7649C87.1671 22.5807 87.2994 22.3023 87.2994 21.9854C87.2994 21.6684 87.1714 21.4114 86.9195 21.2272L75.713 12.7809C75.4825 12.6053 75.2904 12.5239 75.0385 12.5239C74.7866 12.5239 74.5945 12.601 74.364 12.7809L63.1575 21.2272C62.4574 21.7369 61.8213 22.6235 61.8213 24.2469C61.8213 25.8702 62.4318 26.8596 63.1191 27.3907C63.1276 27.3992 63.1362 27.4078 63.1575 27.4206L74.3469 35.7727C74.3469 35.7727 74.3554 35.7813 74.364 35.7813C74.603 35.9612 74.808 36.0297 75.0342 36.0297C75.2605 36.0297 75.4782 35.9612 75.7258 35.7642L86.9152 27.4121C87.0689 27.3007 87.3165 27.018 87.3165 26.6111C87.3165 26.2042 87.1714 26.0115 86.7188 25.6817" fill="#0C4DA2"></path>
  <path d="M45.9486 42.4883H41.6239C41.0348 42.4883 40.7402 42.7838 40.7402 43.3706V65.2617C40.7402 65.8527 41.0348 66.1483 41.6239 66.1483H45.9486C46.5377 66.1483 46.828 65.8527 46.828 65.2617V43.3706C46.828 42.7795 46.5334 42.4883 45.9486 42.4883Z" fill="#0C4DA2"></path>
  <path d="M66.3213 60.555H58.5002C58.0989 60.5379 57.8855 60.3237 57.8641 59.9168V57.5654C57.8641 57.0985 58.0989 56.8629 58.5685 56.8629H58.56H64.7716C65.3607 56.8629 65.651 56.5674 65.651 55.9806V52.19C65.651 51.599 65.3565 51.3077 64.7716 51.3077H58.4533C58.0776 51.2692 57.8812 51.0593 57.8599 50.6695V48.7507V48.7592C57.8599 48.301 58.0861 48.0654 58.5259 48.0525H66.0224C66.6116 48.0525 66.9019 47.757 66.9019 47.1702V43.3839C66.9019 42.7929 66.6073 42.4973 66.0224 42.4973H52.6558C52.0667 42.4973 51.7764 42.7929 51.7764 43.3839V65.275C51.7764 65.8661 52.0709 66.1573 52.6558 66.1573H66.317C66.9061 66.1573 67.1964 65.8618 67.1964 65.275V61.4502C67.1964 60.8591 66.9019 60.5678 66.317 60.5678" fill="#0C4DA2"></path>
  <path d="M105.768 60.555H97.9465C97.5452 60.5379 97.3318 60.3237 97.3104 59.9168V57.5654C97.3104 57.0985 97.5452 56.8629 98.0148 56.8629H98.0063H104.218C104.807 56.8629 105.097 56.5674 105.097 55.9806V52.19C105.097 51.599 104.803 51.3077 104.218 51.3077H97.8996C97.5239 51.2692 97.3275 51.0593 97.3062 50.6695V48.7507V48.7592C97.3062 48.301 97.5324 48.0654 97.9721 48.0525H105.469C106.058 48.0525 106.348 47.757 106.348 47.1702V43.3839C106.348 42.7929 106.054 42.4973 105.469 42.4973H92.1021C91.513 42.4973 91.2227 42.7929 91.2227 43.3839V65.275C91.2227 65.8661 91.5172 66.1573 92.1021 66.1573H105.763C106.352 66.1573 106.643 65.8618 106.643 65.275V61.4502C106.643 60.8591 106.348 60.5678 105.763 60.5678" fill="#0C4DA2"></path>
  <path d="M28.3082 52.4424H26.0968C25.6698 52.4338 25.4436 52.2068 25.435 51.77V48.7161C25.4436 48.2835 25.6656 48.0565 26.0968 48.0436H28.3082C28.7778 48.0436 30.114 48.5362 30.114 50.0696C30.114 51.5001 29.1065 52.4424 28.3082 52.4424ZM36.8507 64.9748L33.1536 56.974C33.0768 56.7941 33.0512 56.7084 33.0512 56.6827C33.0512 56.6827 33.0682 56.6356 33.128 56.5585C34.0245 55.6762 34.7759 54.6611 35.3479 53.5432C35.9414 52.3867 36.2445 51.1275 36.2445 49.7826C36.2445 48.5962 36.0566 47.5425 35.6809 46.643C35.301 45.7393 34.7631 44.9683 34.08 44.3473C33.397 43.7305 32.5773 43.2594 31.6466 42.951C30.7288 42.6383 29.7042 42.4841 28.607 42.4841H20.1968C19.6077 42.4841 19.3174 42.7797 19.3174 43.3707V65.2618C19.3174 65.8529 19.612 66.1441 20.1968 66.1441H24.5599C25.149 66.1441 25.4393 65.8486 25.4393 65.2618V58.6701C25.4478 58.2375 25.6698 58.0148 26.1053 57.9976H26.5962C26.878 58.0019 27.0701 58.109 27.1683 58.3103L30.0073 64.9577C30.161 65.2704 30.3403 65.5231 30.558 65.7415C30.8355 66.0199 31.3008 66.1484 32.0266 66.1484H36.1548C36.5988 66.1484 36.8379 65.9814 36.9489 65.7372C37.0898 65.4331 37.0172 65.2875 36.8549 64.9706" fill="#0C4DA2"></path>
  <path d="M87.1544 55.7491C86.6464 54.9139 86.0103 54.2115 85.2632 53.6547C84.5204 53.1022 83.6922 52.6567 82.8042 52.3226C81.9418 52.0014 81.135 51.7059 80.3708 51.436C80.1018 51.3375 79.7689 51.2176 79.3761 51.0848C79.0175 50.9606 78.6674 50.8021 78.3472 50.6222C78.0484 50.4552 77.7965 50.241 77.5831 49.984C77.4038 49.7656 77.3141 49.5215 77.3141 49.2302C77.3141 48.4335 77.6386 48.1637 77.8819 48.0266C78.3472 47.7654 78.851 47.6369 79.4145 47.6369C80.0506 47.6369 80.7593 47.7611 81.5277 48.0052C82.3175 48.2579 82.9963 48.5064 83.5428 48.7419C83.5812 48.7591 83.6111 48.7719 83.6452 48.7805L84.0081 48.9261C84.5631 49.1403 84.9516 49.0032 85.1778 48.4807L86.8257 45.1741C86.8257 45.1741 86.8257 45.1655 86.8257 45.1569C87.0136 44.7115 86.8727 44.3731 86.4415 44.099L85.7883 43.7307C85.7883 43.7307 85.7499 43.7135 85.7328 43.6921L85.6859 43.6621C85.0071 43.2852 84.2088 42.9554 83.2909 42.677C82.198 42.3429 80.8447 42.1802 79.2694 42.1802C78.1978 42.1802 77.1647 42.3472 76.2041 42.6856C75.235 43.0197 74.377 43.5079 73.6555 44.1333C72.9297 44.7543 72.3406 45.521 71.9094 46.4119C71.4782 47.3028 71.2605 48.3093 71.2605 49.4058C71.2605 50.3695 71.4056 51.2261 71.6959 51.9457C71.982 52.6696 72.3833 53.312 72.8785 53.8517C73.3737 54.3871 73.9629 54.8454 74.6246 55.2094C75.2735 55.5649 75.9565 55.8605 76.6695 56.0918C78.3216 56.6486 79.628 57.184 80.5458 57.6851C81.3442 58.122 81.7327 58.6488 81.7327 59.2913C81.7327 59.4497 81.7028 59.6296 81.6558 59.8267C81.6174 59.9851 81.5235 60.1308 81.3826 60.2721C81.2374 60.4177 81.0026 60.5419 80.6953 60.6447C80.3623 60.7518 79.9055 60.8075 79.342 60.8075C79.073 60.8075 78.7357 60.769 78.343 60.6876C77.9374 60.6105 77.5105 60.4863 77.0665 60.3235C76.6225 60.1565 76.17 59.9637 75.7132 59.7324C75.2692 59.5097 74.8679 59.2699 74.5306 59.0129C74.4367 58.9443 74.3471 58.8887 74.2617 58.8373L73.9287 58.6274C73.4335 58.2976 73.0236 58.3447 72.6949 58.8073L70.5347 61.8055C70.1847 62.2809 70.2829 62.6664 70.714 63.0433C72.268 64.4739 73.8732 65.3134 75.3204 65.7203C76.7549 66.1229 78.1637 66.3285 79.517 66.3285C80.6312 66.3285 81.707 66.1743 82.7146 65.8659C83.7306 65.5532 84.6357 65.0821 85.3956 64.461C86.164 63.8314 86.7873 63.0519 87.2398 62.1396C87.7009 61.223 87.9272 60.1393 87.9272 58.9186C87.9272 57.6979 87.6625 56.5972 87.1459 55.7406" fill="#0C4DA2"></path>
  <path d="M149.219 55.7491C148.711 54.9139 148.074 54.2115 147.327 53.6547C146.584 53.1022 145.756 52.6567 144.868 52.3226C144.006 52.0014 143.199 51.7059 142.435 51.436C142.166 51.3375 141.833 51.2176 141.44 51.0848C141.082 50.9606 140.732 50.8021 140.411 50.6222C140.112 50.4552 139.861 50.241 139.647 49.984C139.468 49.7656 139.378 49.5215 139.378 49.2302C139.378 48.4335 139.703 48.1637 139.946 48.0266C140.411 47.7654 140.915 47.6369 141.479 47.6369C142.115 47.6369 142.823 47.7611 143.592 48.0052C144.382 48.2579 145.06 48.5064 145.607 48.7419C145.645 48.7591 145.675 48.7719 145.709 48.7805L146.076 48.9261C146.631 49.1403 147.02 49.0032 147.246 48.4807L148.894 45.1741C148.894 45.1741 148.894 45.1655 148.894 45.1569C149.082 44.7115 148.941 44.3731 148.51 44.099L147.857 43.7307C147.857 43.7307 147.818 43.7135 147.801 43.6921L147.754 43.6621C147.075 43.2852 146.277 42.9554 145.359 42.677C144.266 42.3429 142.913 42.1802 141.338 42.1802C140.266 42.1802 139.233 42.3472 138.273 42.6856C137.303 43.0197 136.445 43.5079 135.724 44.1333C134.998 44.7543 134.409 45.521 133.978 46.4119C133.547 47.3028 133.329 48.3093 133.329 49.4058C133.329 50.3695 133.474 51.2261 133.764 51.9457C134.05 52.6696 134.452 53.312 134.947 53.8517C135.442 54.3871 136.031 54.8454 136.693 55.2094C137.338 55.5649 138.025 55.8605 138.738 56.0918C140.39 56.6486 141.696 57.184 142.614 57.6851C143.413 58.122 143.801 58.6488 143.801 59.2913C143.801 59.4497 143.771 59.6296 143.724 59.8267C143.686 59.9851 143.592 60.1308 143.451 60.2721C143.306 60.4177 143.071 60.5419 142.764 60.6447C142.431 60.7518 141.974 60.8075 141.41 60.8075C141.141 60.8075 140.808 60.769 140.411 60.6876C140.006 60.6105 139.579 60.4863 139.135 60.3235C138.691 60.1565 138.238 59.9637 137.782 59.7324C137.338 59.5097 136.936 59.2699 136.599 59.0129C136.505 58.9443 136.415 58.8887 136.33 58.8373L135.997 58.6274C135.502 58.2976 135.092 58.3447 134.763 58.8073L132.603 61.8055C132.253 62.2809 132.351 62.6664 132.782 63.0433C134.336 64.4739 135.942 65.3134 137.389 65.7203C138.823 66.1229 140.232 66.3285 141.585 66.3285C142.7 66.3285 143.775 66.1743 144.783 65.8659C145.799 65.5532 146.704 65.0821 147.464 64.461C148.232 63.8314 148.856 63.0519 149.308 62.1396C149.769 61.223 149.996 60.1393 149.996 58.9186C149.996 57.6979 149.731 56.5972 149.214 55.7406" fill="#0C4DA2"></path>
  <path d="M127.8 42.4883H123.621C123.032 42.4883 122.737 42.7838 122.737 43.3706V53.3203C122.737 53.4231 122.669 53.3503 122.669 53.3503L116.581 43.255C116.316 42.8095 115.795 42.4883 115.24 42.4883H112.073C111.484 42.4883 111.193 42.7838 111.193 43.3706V65.2617C111.193 65.8527 111.488 66.1483 112.073 66.1483H116.252C116.841 66.1483 117.132 65.8527 117.132 65.2617V55.6332C117.132 55.5133 117.2 55.5947 117.2 55.5947L123.326 65.4544C123.582 65.9042 123.8 66.0241 124.142 66.084C124.381 66.1312 124.654 66.1526 124.978 66.1526H127.787C128.377 66.1526 128.667 65.857 128.667 65.266V43.3749C128.667 42.7838 128.372 42.4926 127.787 42.4926" fill="#0C4DA2"></path>
</svg>
